<svg width="40" height="40" viewBox="0 0 350 350" fill="none" xmlns="http://www.w3.org/2000/svg">
<rect width="350" height="350" rx="40" fill="black"/>
<path d="M64.1133 269.766C53.3581 269.766 47.9805 263.294 47.9805 250.352V227.547H56.293V251.062C56.293 255.219 56.9492 258.19 58.2617 259.977C59.6107 261.727 61.5612 262.602 64.1133 262.602C66.7383 262.602 68.7253 261.708 70.0742 259.922C71.4596 258.135 72.1523 255.182 72.1523 251.062V227.547H80.1367V250.352C80.1367 263.294 74.7956 269.766 64.1133 269.766ZM107.863 269.766C101.993 269.766 97.1992 267.888 93.4805 264.133C89.7982 260.378 87.957 255.146 87.957 248.438C87.957 241.802 89.8346 236.534 93.5898 232.633C97.3815 228.732 102.139 226.781 107.863 226.781C112.931 226.781 117.197 228.549 120.66 232.086L116.23 237.336C113.861 235.039 111.163 233.891 108.137 233.891C104.637 233.891 101.811 235.167 99.6602 237.719C97.5091 240.271 96.4336 243.753 96.4336 248.164C96.4336 252.758 97.4727 256.312 99.5508 258.828C101.629 261.344 104.673 262.602 108.684 262.602C110.908 262.602 112.639 262.091 113.879 261.07V252.867H106.551V246.086H121.316V264.789C119.822 266.247 117.889 267.451 115.52 268.398C113.15 269.31 110.598 269.766 107.863 269.766ZM130.176 269V227.547H155.605V234.438H138.488V244.008H153.035V250.953H138.488V262.055H156.207V269H130.176ZM164.574 269V227.547H190.004V234.438H172.887V244.008H187.434V250.953H172.887V262.055H190.605V269H164.574ZM232.605 248.547H218.77C220.775 252.302 223.236 255.438 226.152 257.953C228.923 255.182 231.074 252.047 232.605 248.547ZM236.926 241.82L241.465 243.789C239.46 251.117 236.178 257.188 231.621 262C236.251 264.661 241.611 266.521 247.699 267.578C245.986 269.219 244.546 271.242 243.379 273.648C236.816 272.19 231.129 269.839 226.316 266.594C222.051 269.656 217.111 272.062 211.496 273.812C210.402 271.516 209.145 269.638 207.723 268.18C212.717 266.904 217.165 264.917 221.066 262.219C217.931 258.974 215.434 255.456 213.574 251.664C210.548 260.341 206.392 267.068 201.105 271.844C199.647 270.057 197.751 268.49 195.418 267.141C203.22 260.76 208.178 250.497 210.293 236.352H197.551V229.844H211.059C211.168 228.385 211.277 226.635 211.387 224.594L211.551 221.531H218.496C218.314 224.703 218.113 227.474 217.895 229.844H246.168V236.352H217.184C216.892 238.32 216.546 240.234 216.145 242.094H235.723L236.926 241.82ZM281.168 257.953H290.137C288.824 256.677 287.493 255.128 286.145 253.305H270.34C269.465 254.617 268.134 256.167 266.348 257.953H274.441V254.508H281.168V257.953ZM269.191 245.375V247.891H286.746V245.375H269.191ZM286.746 231.211H269.191V233.672H286.746V231.211ZM269.191 238.266V240.727H286.746V238.266H269.191ZM303.918 253.305H293.691C296.9 256.221 300.527 258.391 304.574 259.812C303.845 260.432 303.043 261.253 302.168 262.273C301.329 263.258 300.673 264.151 300.199 264.953C297.1 263.495 294.165 261.544 291.395 259.102V263.258H281.168V266.867H299.434V272.336H256.832V266.867H274.441V263.258H264.488V259.758C261.681 262.128 258.71 264.023 255.574 265.445C254.408 263.44 253.004 261.745 251.363 260.359C255.665 258.755 259.421 256.404 262.629 253.305H251.855V247.891H262.52V231.211H254.809V225.797H262.52V221.641H269.191V225.797H286.746V221.641H293.582V225.797H301.238V231.211H293.582V247.891H303.918V253.305Z" fill="white"/>
<path d="M124.147 143.45C124.335 143.305 124.5 143.123 124.593 142.903C124.687 142.684 124.702 142.448 124.63 142.235C124.559 142.021 124.406 141.841 124.2 141.722C123.993 141.603 123.752 141.556 123.515 141.552C123.515 141.552 123.515 141.552 123.515 141.552C121.875 141.687 120.593 142.941 119.925 144.182C119.418 145.111 119.16 146.085 119.065 147.045C118.676 152.79 121.079 157.572 123.662 161.86C125.093 164.096 126.623 166.048 128.194 168.026C134.154 174.534 139.585 183.709 150.198 183.791C150.198 183.791 150.198 183.791 150.198 183.791C151.721 183.367 153.277 182.664 154.36 181.314C155.454 179.973 155.695 178.145 155.432 176.599C155.236 175.408 154.845 174.314 154.267 173.258C154.201 173.147 154.092 173.065 153.966 173.031C153.839 172.997 153.706 173.012 153.593 173.075C153.48 173.138 153.396 173.243 153.359 173.369C153.321 173.494 153.333 173.629 153.393 173.744C153.393 173.744 153.393 173.744 153.393 173.744C153.836 174.661 154.16 175.728 154.269 176.754C154.732 179.616 152.569 181.735 149.802 182.209C149.802 182.209 149.802 182.209 149.802 182.209C141.772 181.918 135.806 172.837 130.579 166.206C129.161 164.238 127.741 162.153 126.622 160.14C124.435 156.057 122.715 151.49 123.046 147.435C123.111 146.774 123.185 146.152 123.298 145.564C123.462 144.762 123.633 144.041 124.147 143.45Z" fill="#C80A4E"/>
<path d="M201.566 82.4647C201.816 82.5256 202.084 82.4832 202.309 82.351C202.535 82.2185 202.699 82.007 202.768 81.7588C202.836 81.5107 202.803 81.2448 202.678 81.0155C202.552 80.7864 202.344 80.6127 202.098 80.5367C202.098 80.5367 202.098 80.5367 202.098 80.5367C200.954 80.1894 199.877 79.9207 198.66 79.7562C196.419 79.4592 193.321 79.5299 191.459 82.0123C189.752 84.4601 190.049 87.2236 190.463 89.5275C191.456 94.2267 193.664 98.3468 196.31 102.141C197.058 103.194 197.825 104.189 198.621 105.175C203.691 111.203 208.824 117.195 216.63 120.978C218.907 121.978 222.429 122.589 225.003 120.382C226.172 119.344 226.67 117.971 226.785 116.715C226.792 116.598 226.781 116.477 226.735 116.369C226.688 116.262 226.61 116.177 226.51 116.129C226.41 116.082 226.295 116.075 226.182 116.106C226.069 116.138 225.968 116.206 225.882 116.285C225.882 116.285 225.882 116.285 225.882 116.285C225.031 117.066 224.133 117.534 223.374 117.631C221.894 117.802 220.445 117.154 218.615 116.39C212.495 113.492 206.7 108.059 201.669 102.586C200.867 101.689 200.09 100.786 199.354 99.8611C196.752 96.5545 194.489 92.8005 193.41 88.86C192.898 86.933 192.753 84.8128 193.593 83.5156C194.365 82.2041 196.402 81.7777 198.432 81.9456C199.488 82.0242 200.486 82.203 201.566 82.4647Z" fill="#C80A4E"/>
<path d="M130.494 105.936C130.627 105.747 130.747 105.55 130.813 105.342C130.879 105.135 130.883 104.931 130.814 104.748C130.746 104.565 130.608 104.414 130.422 104.301C130.236 104.188 130.015 104.119 129.791 104.064C129.791 104.064 129.791 104.064 129.791 104.064C126.609 103.773 123.539 105.398 121.598 107.91C120.186 109.711 119.386 111.897 119.152 113.998C118.517 120.342 120.089 125.822 121.91 130.821C124.597 137.909 128.912 143.776 133.194 149.549C134.222 150.925 135.241 152.289 136.25 153.664C142.205 161.745 148.635 169.541 156.256 176.307C163.708 182.519 173.486 190.546 185.082 186.374C185.291 186.284 185.496 186.191 185.695 186.095C188.749 184.745 191.513 181.595 191.918 178.13C192.405 174.709 191.448 171.593 190.242 168.805C189.28 166.64 188.114 164.624 186.749 162.725C186.674 162.625 186.558 162.558 186.432 162.536C186.305 162.515 186.177 162.54 186.073 162.609C185.969 162.678 185.896 162.785 185.866 162.911C185.837 163.036 185.853 163.169 185.915 163.277C185.915 163.277 185.915 163.277 185.915 163.277C186.976 165.214 187.837 167.336 188.435 169.457C190.171 174.969 189.033 180.87 184.058 182.446C183.904 182.508 183.746 182.569 183.583 182.628C166.083 185.377 152.347 164.613 142.015 149.694C141.124 148.31 140.283 146.897 139.469 145.453C136.111 139.468 133.518 133.262 131.276 127.316C129.709 123.141 128.682 118.726 129.089 115.12C129.226 113.928 129.266 112.843 129.306 111.679C129.364 110.105 129.505 108.11 130.494 105.936Z" fill="#C80A4E"/>
<path d="M148.719 84.9215C148.863 84.7397 148.99 84.5413 149.055 84.3252C149.119 84.109 149.115 83.8924 149.034 83.7019C148.953 83.5113 148.8 83.3577 148.6 83.2537C148.4 83.1498 148.169 83.1036 147.938 83.0804C147.938 83.0804 147.938 83.0804 147.938 83.0804C144.52 83.264 141.642 85.8708 140.28 88.8668C139.259 91.0728 138.937 93.3912 139.073 95.5739C140.847 110.682 149.461 121.049 157.13 131.567C157.152 131.596 157.175 131.625 157.197 131.654C164.254 140.825 171.532 149.895 179.945 158.109C187.964 165.611 199.556 176.072 212.601 170.423C213.623 169.987 214.585 169.455 215.502 168.724C218.909 166.191 219.452 161.417 218.643 158.137C217.9 154.687 216.414 151.695 214.858 148.809C213.646 146.583 212.329 144.435 211.09 142.276C211.027 142.167 210.921 142.086 210.797 142.049C210.674 142.011 210.543 142.021 210.431 142.077C210.319 142.133 210.233 142.232 210.189 142.353C210.144 142.474 210.146 142.608 210.195 142.724C210.195 142.724 210.195 142.724 210.195 142.724C211.195 145.025 212.22 147.312 213.108 149.621C215.328 155.303 217.309 162.821 213.067 165.55C212.48 165.97 211.819 166.301 211.063 166.579C201.097 170.614 191.475 161.894 183.919 154.158C176.2 146.017 169.376 136.849 162.848 127.524C162.828 127.494 162.807 127.464 162.786 127.435C155.784 117.177 149.096 105.62 148.055 95.0093C147.966 93.5487 147.841 92.2258 147.77 90.8866C147.675 89.1057 147.677 87.0348 148.719 84.9215Z" fill="#C80A4E"/>
<path d="M175.587 77.9665C175.777 77.8278 175.949 77.6549 176.053 77.4436C176.157 77.2324 176.186 77.002 176.129 76.7881C176.072 76.5741 175.933 76.3885 175.738 76.2567C175.543 76.1249 175.308 76.0598 175.074 76.0335C175.074 76.0335 175.074 76.0335 175.074 76.0335C172.51 76.0453 170.086 77.4185 168.557 79.5953C167.444 81.172 166.878 83.0183 166.738 84.7901C166.554 95.643 172.53 103.216 177.575 110.676C178.412 111.845 179.218 112.945 180.072 114.099C185.687 121.659 191.958 128.768 199.227 134.836C202.878 137.86 206.74 140.612 211.034 142.768C215.262 144.637 220.272 147.346 225.45 144.327C225.978 143.917 226.456 143.466 226.892 142.949C230.793 138.015 228.583 131.903 226.722 127.248C225.931 125.374 225.032 123.559 224.09 121.776C224.029 121.662 223.924 121.575 223.799 121.535C223.674 121.495 223.54 121.505 223.424 121.563C223.308 121.621 223.22 121.723 223.177 121.847C223.134 121.97 223.14 122.106 223.195 122.224C223.195 122.224 223.195 122.224 223.195 122.224C224.046 124.03 224.843 125.859 225.521 127.719C227.2 132.371 228.556 138.144 225.383 141.636C225.031 142.023 224.644 142.362 224.21 142.675C216.698 145.406 207.737 138.091 201.181 132.56C194.358 126.48 188.487 119.36 183.333 111.784C182.549 110.628 181.829 109.513 181.09 108.325C176.613 100.963 172.399 92.5157 172.718 85.2719C172.812 84.132 172.95 83.1061 173.222 82.0894C173.57 80.7291 174.348 79.2011 175.587 77.9665Z" fill="#C80A4E"/>
</svg>
